<?xml version="1.0" standalone="no"?>
<!DOCTYPE svg PUBLIC "-//W3C//DTD SVG 20010904//EN"
 "http://www.w3.org/TR/2001/REC-SVG-20010904/DTD/svg10.dtd">
<svg version="1.0" xmlns="http://www.w3.org/2000/svg"
 width="900.000000pt" height="138.000000pt" viewBox="0 0 900.000000 138.000000"
 preserveAspectRatio="xMidYMid meet">
<metadata>
Created by potrace 1.10, written by Peter Selinger 2001-2011
</metadata>
<g transform="translate(0.000000,138.000000) scale(0.100000,-0.100000)"
fill="#000000" stroke="none">
<path d="M30 1366 c0 -7 41 -29 98 -51 53 -21 111 -43 127 -50 167 -68 374
-131 620 -190 245 -59 273 -65 296 -65 11 0 51 -7 88 -15 65 -14 245 -38 369
-50 35 -3 76 -14 91 -23 16 -9 66 -40 112 -67 46 -28 91 -54 99 -58 8 -4 29
-16 45 -26 36 -22 201 -106 300 -151 39 -18 93 -43 121 -56 27 -12 68 -29 90
-37 21 -8 77 -29 124 -46 181 -67 415 -140 565 -175 225 -54 383 -83 620 -117
382 -54 1098 -49 1475 11 74 12 162 25 195 30 33 4 83 13 110 19 28 6 82 18
120 27 205 45 301 72 525 145 119 39 270 95 335 124 17 7 46 20 65 28 45 20
420 204 440 217 199 125 252 152 313 156 190 15 537 72 671 110 26 8 54 14 62
14 55 0 584 165 719 225 17 7 50 21 75 31 51 20 70 32 70 45 0 5 -1912 9
-4470 9 -3758 0 -4470 -2 -4470 -14z"/>
</g>
</svg>
